<svg xmlns="http://www.w3.org/2000/svg" width="109.414" height="148.367" viewBox="0 0 109.414 148.367"><path fill="#713163" d="M92.142 110.396c1.073 1.8 2.13 3.324 3.166 4.568.83-1.085 1.246-1.928 1.246-2.526 0-.31-.125-.56-.373-.75-.247-.192-.692-.298-1.336-.323v-.82h5.16v.82c-.612 0-1.077.11-1.395.332-.32.222-.734.78-1.245 1.676-.46.8-.927 1.528-1.4 2.19.484.502.873.834 1.166.996.296.16.577.24.85.24.376 0 .69-.148.943-.443.254-.295.4-.76.436-1.397h.8c-.006 1.16-.245 2.024-.72 2.596-.557.66-1.33.99-2.31.99-.487 0-.954-.083-1.403-.253s-.998-.507-1.648-1.01c-.777.484-1.454.817-2.03.996-.575.177-1.2.266-1.865.266-1.25 0-2.254-.35-3.014-1.045-.757-.697-1.136-1.57-1.136-2.62 0-1.77 1.168-3.164 3.502-4.184-.412-.85-.682-1.493-.81-1.933-.126-.44-.19-.86-.19-1.26 0-.843.335-1.56 1.002-2.147.667-.588 1.544-.883 2.63-.883 1.094 0 1.933.232 2.513.697.584.465.875 1.05.875 1.76 0 .6-.245 1.184-.733 1.75-.487.568-1.38 1.138-2.678 1.716zm-2.22 1.126c-.493.37-.836.73-1.026 1.082-.19.353-.29.743-.29 1.174 0 .8.29 1.572.866 2.312.577.74 1.284 1.11 2.122 1.11.588 0 1.194-.2 1.82-.6-.99-1.256-1.63-2.095-1.92-2.517-.29-.42-.816-1.273-1.573-2.56zm1.836-1.862c.697-.322 1.177-.675 1.44-1.06.266-.385.397-.878.397-1.48 0-.6-.127-1.053-.38-1.36-.257-.305-.603-.46-1.038-.46-.413 0-.752.146-1.016.433-.263.29-.395.68-.395 1.17 0 .704.33 1.622.994 2.757z"/><path fill="#4C2645" d="M12.966 116.737l-1.32 5.343h.193c2.277 0 3.896-2.143 3.896-3.972 0-1.348-.88-2.526-3.02-2.526-4.448 0-7.412 2.19-7.412 5.85 0 1.227.356 1.42.385 1.635-1.896 0-2.94-.602-2.94-2.334 0-3.2 5.053-6.257 9.637-6.257 4.31 0 6.232 1.876 6.232 3.85 0 1.42-.99 2.913-2.745 3.803 2.25.383 3.156 2.044 3.156 3.92 0 3.106-2.442 6.884-5.463 6.884-1.647 0-3.24-.144-3.24-1.66 0-.408.11-.914.358-1.516.52.745 1.455.865 1.838.865 1.512 0 2.72-2.383 2.72-4.428 0-1.565-.687-2.96-2.5-2.96-.356 0-.876.023-1.372.072l-2.25 9.216H5.17L8.9 117.22l4.066-.483zm12.518 14.055c1.346 0 3.65-1.396 4.613-3.176h1.234c-1.563 2.478-4.2 4.91-7.74 4.91-2.636 0-4.062-1.758-4.062-3.827 0-3.06 1.482-8.426 6.48-8.426 2.25 0 3.513.818 3.513 2.503 0 2.937-3.594 4.62-6.203 4.91-.056.385-.082.746-.082 1.034 0 1.59 1.18 2.07 2.25 2.07zm1.428-9.242c-1.537 0-2.8 2.72-3.377 4.982 2.525-.023 4.31-1.926 4.338-3.634 0-.505-.138-1.348-.96-1.348z"/><path fill="#4C2645" d="M35.777 120.49l-.3 1.205c.987-.674 2.087-1.204 3.24-1.204 1.233 0 1.976.63 1.976 1.543 0 .842-.713 1.877-2.06 1.877-1.537 0-.77-1.59-1.593-1.59-.822 0-1.264.265-1.893.77l-2.28 9.436h-3.952l2.91-12.034h3.952zm10.215 10.302c1.344 0 3.65-1.396 4.61-3.176h1.237c-1.568 2.478-4.203 4.91-7.745 4.91-2.635 0-4.063-1.758-4.063-3.827 0-3.06 1.484-8.426 6.48-8.426 2.25 0 3.514.818 3.514 2.503 0 2.937-3.597 4.62-6.204 4.91-.056.385-.083.746-.083 1.034 0 1.59 1.18 2.07 2.25 2.07zm1.427-9.242c-1.54 0-2.804 2.72-3.38 4.982 2.526-.023 4.31-1.926 4.34-3.634 0-.505-.14-1.348-.96-1.348z"/><path fill="#4C2645" d="M61.53 128.674c-.083.266-.137.53-.137.77 0 .53.302.892 1.372.892 1.098 0 1.51-.747 2.607-1.518h.934c-1.262 1.108-3.35 3.707-5.49 3.707-2.143 0-3.403-.818-3.403-2.623 0-.385.054-.77.162-1.23l1.045-4.33c.054-.218.083-.434.083-.626 0-.866-.523-1.42-1.265-1.42-.657 0-1.152.168-1.728.506l-2.334 9.723H49.42l2.912-12.034h3.953l-.33 1.3c1.127-.72 2.39-1.3 3.598-1.3 1.482 0 3.157 1.398 3.157 3.01 0 .19 0 .387-.056.58l-1.125 4.595zm14.22 2.118c1.346 0 3.652-1.396 4.61-3.176h1.24c-1.565 2.478-4.2 4.91-7.743 4.91-2.635 0-4.062-1.758-4.062-3.827 0-3.06 1.482-8.426 6.48-8.426 2.25 0 3.513.818 3.513 2.503 0 2.937-3.597 4.62-6.204 4.91-.055.385-.083.746-.083 1.034 0 1.59 1.18 2.07 2.25 2.07zm1.428-9.242c-1.538 0-2.802 2.72-3.378 4.982 2.527-.023 4.31-1.926 4.338-3.634 0-.505-.137-1.348-.96-1.348z"/><path fill="#4C2645" d="M91.29 128.674c-.084.266-.14.53-.14.77 0 .53.303.892 1.373.892 1.098 0 1.51-.747 2.61-1.518h.932c-1.263 1.108-3.35 3.707-5.49 3.707-2.142 0-3.405-.818-3.405-2.623 0-.385.056-.77.166-1.23l1.043-4.33c.053-.218.08-.434.08-.626 0-.866-.522-1.42-1.263-1.42-.66 0-1.152.168-1.73.506l-2.334 9.723H79.18l2.91-12.034h3.955l-.33 1.3c1.126-.72 2.39-1.3 3.597-1.3 1.48 0 3.157 1.398 3.157 3.01 0 .19 0 .387-.057.58l-1.125 4.595z"/><path fill="#4C2645" d="M104.685 128.674c-.082.29-.136.554-.136.82 0 .504.22.89.984.89.193 0 .495 0 .714-.073-.77 2.07-1.922 2.217-2.856 2.217-1.592 0-2.442-.723-2.717-1.83-.824.988-2.06 1.975-3.732 1.975-2.636 0-3.404-1.636-3.404-3.056 0-4.14 1.7-9.098 7.19-9.098.66 0 1.346.24 1.84.603l.166-.627h3.925l-1.976 8.182zm-2.39-6.378c-.438-.336-.96-.432-1.344-.432-2.06 0-3.704 3.826-3.704 7.1 0 1.443.906 1.708 1.592 1.708.632 0 1.236-.554 1.785-1.227 0-.24.055-.506.137-.77l1.536-6.38zm-33.807 3.012l-3.217 13.89c-.82 3.442-3.365 4.16-5.18 4.16-1.672 0-3.237-1.034-3.237-2.6 0-2.213 1.013-5.068 5.896-8.088l1.785-7.362h3.954zm-9.11 13.494c0 .336-.04 1.125.564 1.125.548 0 1.093-.384 1.422-1.805l1.126-4.02c-2.383 1.752-3.112 3.4-3.112 4.7z"/><path fill="#713163" d="M28.86 114.426c-.997 2.52-3.65 3.5-5.365 3.5-2.785 0-4.122-1.24-4.122-4.63 0-3.406 1.638-9.787 6.57-9.787 1.77 0 3.143.693 3.143 2.52 0 .996-.357 1.73-1.317 1.73-.303 0-.717-.076-1.074-.49.45-.225.866-1.015.866-1.73 0-.603-.302-1.15-1.15-1.15-2.07 0-3.915 4.95-3.915 8.79 0 1.734.452 2.94 2.26 2.94 1.468 0 2.806-.717 3.67-1.88l.432.185z"/><path fill="#713163" d="M37.406 108.215l-1.356 6.398c-.056.245-.073.433-.073.603 0 .528.244.81.77.81.735 0 1.244-.827 1.526-1.77h.79c-1.072 3.067-2.767 3.483-3.783 3.483-1.055 0-1.732-.604-1.846-1.734-.583.866-1.468 1.732-2.804 1.732-1.28 0-2.504-.793-2.504-3.033 0-2.54 1.562-6.588 4.838-6.588 1.072 0 1.524.414 1.524.96v.132l.207-.998h2.71zm-6.494 6.23c0 1.448.602 1.467.94 1.467.547 0 1.337-.564 1.562-1.656l.904-4.254c0-.227-.168-.716-.77-.716-1.6 0-2.636 3.39-2.636 5.158z"/><path fill="#713163" d="M40.286 104.826l2.785-.377-.9 4.233c.77-.47 1.167-.527 1.543-.527 1.317 0 2.22.828 2.22 3.22 0 2.2-1.166 6.362-5.156 6.362-1.73 0-2.635-.904-2.635-2.41 0-.32.037-.68.133-1.074l2.013-9.43zm2.75 4.668c-.266 0-.906.094-1.112.338l-1.035 4.78c-.04.15-.06.303-.06.434 0 .547.32.866 1 .866 1.223 0 2.2-2.635 2.2-4.61 0-.923-.32-1.808-.996-1.808zm12.28-1.28l-1.354 6.4c-.056.244-.075.432-.075.602 0 .528.243.81.77.81.735 0 1.243-.827 1.525-1.77h.792c-1.074 3.067-2.768 3.483-3.785 3.483-1.057 0-1.733-.604-1.846-1.734-.584.866-1.468 1.732-2.805 1.732-1.28 0-2.505-.793-2.505-3.033 0-2.54 1.562-6.588 4.838-6.588 1.074 0 1.525.414 1.525.96v.132l.205-.998h2.712zm-6.494 6.23c0 1.45.603 1.468.942 1.468.546 0 1.336-.564 1.562-1.656l.903-4.254c0-.227-.17-.716-.773-.716-1.6 0-2.636 3.39-2.636 5.158z"/><path fill="#713163" d="M60.982 104.45l-2.164 10.163c-.056.245-.076.433-.076.603 0 .528.245.696.77.696.736 0 1.413-.714 1.697-1.656H62c-1.074 3.067-2.938 3.483-3.952 3.483-1.132 0-2.017-.68-2.017-2.26 0-.36.06-.774.153-1.226l2.015-9.43 2.785-.376z"/><path fill="#713163" d="M66.008 104.45l-2.164 10.163c-.058.245-.075.433-.075.603 0 .528.24.696.77.696.733 0 1.41-.714 1.692-1.656h.792c-1.073 3.067-2.938 3.483-3.953 3.483-1.13 0-2.016-.68-2.016-2.26 0-.36.058-.774.15-1.226l2.017-9.43 2.787-.376z"/><path fill="#713163" d="M70.132 116.156c1.486 0 2.39-.827 3.33-1.9h.64c-1.072 1.732-2.673 3.483-5.176 3.483-1.77 0-2.937-.868-2.937-2.996 0-2.165 1.222-6.7 5.08-6.7 1.676 0 2.07.864 2.07 1.807 0 2.165-2.07 3.84-4.33 3.97-.02.267-.035.53-.035.755 0 1.28.452 1.58 1.356 1.58zm1.09-7.114c-.96 0-1.882 2.014-2.26 3.877 1.45-.097 2.73-1.544 2.73-3.107 0-.47-.112-.772-.47-.772z"/><path fill="#713163" d="M78.093 105.238l-.64 2.977h1.13l-.15.752h-1.13l-1.206 5.646c-.056.245-.074.433-.074.603 0 .528.245.696.77.696.735 0 1.413-.714 1.695-1.656h.79c-1.072 3.067-2.937 3.483-3.953 3.483-1.13 0-2.014-.68-2.014-2.26 0-.36.06-.774.15-1.226l1.13-5.29h-.62l.15-.75h.62l.568-2.6 2.786-.377z"/><path fill="#713163" d="M82.177 115.95c.717 0 1.62-.47 2.223-.998-.396 2.146-1.75 2.787-3.257 2.787-1.75 0-2.917-.868-2.917-2.996 0-2.165 1.223-6.7 5.082-6.7 1.674 0 2.07.864 2.07 1.807 0 2.184-2.07 3.84-4.33 3.97-.018.19-.037.398-.037.568 0 1.182.51 1.56 1.168 1.56zm1.28-6.908c-.94 0-1.882 2.09-2.278 3.877 1.47-.077 2.75-1.526 2.75-3.107 0-.47-.116-.772-.473-.772z"/><path fill="#618846" d="M68.677 133.745l.333 8.478 3.118-8.482.495.007-3.532 9.608h-.52l-.37-9.608h.48z"/><path fill="#608746" d="M69.184 143.484h-.74l-.383-9.872h.745l.312 7.94 2.92-7.946.775.008-3.626 9.87zm-.485-.262h.3l3.435-9.347-.216-.002-3.315 9.02-.354-9.016h-.215l.363 9.345z"/><path fill="#618846" d="M72.796 139.995c-.09.53-.135 1.013-.135 1.447 0 1.07.37 1.605 1.11 1.605.86 0 1.47-.657 1.825-1.972l.467.05c-.178.763-.47 1.345-.88 1.752-.408.406-.906.608-1.492.608-.533 0-.924-.166-1.173-.5s-.374-.853-.374-1.565c0-.836.18-1.867.534-3.1.355-1.23 1.084-1.845 2.186-1.845 1.06 0 1.587.72 1.587 2.154 0 .4-.055.854-.16 1.362H72.8zm.094-.44h2.972c.043-.3.065-.59.065-.866 0-1.184-.376-1.773-1.133-1.773-.906 0-1.542.878-1.904 2.637z"/><path fill="#608746" d="M73.69 143.62c-.575 0-1.006-.188-1.28-.554-.268-.36-.398-.898-.398-1.646 0-.843.18-1.898.538-3.135.372-1.286 1.15-1.94 2.312-1.94.57 0 1.006.2 1.296.592.28.38.423.95.423 1.693 0 .41-.054.877-.16 1.393l-.023.104H72.91c-.075.478-.113.92-.113 1.314 0 .994.318 1.474.975 1.474.8 0 1.356-.61 1.697-1.874l.03-.11.725.083-.034.145c-.18.78-.49 1.39-.914 1.812-.436.43-.97.65-1.588.65zm1.17-7.012c-1.043 0-1.718.574-2.057 1.752-.352 1.212-.528 2.242-.528 3.06 0 .68.116 1.18.347 1.488.224.3.574.446 1.067.446.553 0 1.012-.187 1.396-.57.364-.36.636-.88.81-1.543l-.206-.02c-.374 1.3-1.022 1.96-1.92 1.96-.415 0-.73-.153-.94-.46-.198-.286-.3-.717-.3-1.276 0-.44.046-.934.136-1.47l.02-.11h3.495c.09-.456.138-.867.138-1.23 0-1.362-.478-2.025-1.456-2.025zm1.114 3.08h-3.247l.032-.16c.375-1.82 1.06-2.743 2.033-2.743.424 0 .748.17.96.505.206.32.306.777.306 1.4 0 .28-.024.578-.07.886l-.017.112zm-2.92-.265h2.69c.034-.254.05-.5.05-.734 0-1.64-.75-1.64-1-1.64-.803 0-1.39.8-1.74 2.372z"/><path fill="#618846" d="M77.42 143.714l-.013.253c0 1.057.403 1.586 1.212 1.586.957 0 1.553-.75 1.784-2.252l.146-.932c-.373.73-.937 1.094-1.69 1.094-.508 0-.893-.177-1.16-.533-.267-.355-.4-.867-.4-1.533 0-.337.028-.72.08-1.146.054-.43.212-1.16.476-2.205s.98-1.567 2.16-1.567c.658 0 1.1.34 1.322 1.014l.134-.865h.48l-1.037 6.542c-.035.26-.062.427-.08.506-.02.08-.088.33-.213.754-.124.422-.376.788-.757 1.1-.38.31-.833.467-1.355.467-1.082 0-1.622-.658-1.622-1.973v-.214l.53-.094zm.413-2.854v.44c0 1.147.373 1.72 1.12 1.72.435 0 .803-.178 1.105-.534.302-.354.515-.8.64-1.338s.217-1.03.28-1.48c.062-.448.093-.81.093-1.086 0-.525-.1-.933-.306-1.226-.206-.294-.49-.44-.856-.44-.588 0-1.082.352-1.48 1.053-.394.7-.594 1.664-.594 2.89z"/><path fill="#608746" d="M78.51 146.124c-.58 0-1.024-.182-1.32-.54-.29-.353-.435-.877-.435-1.563v-.322l.805-.142-.02.416c0 .977.353 1.45 1.08 1.45.89 0 1.433-.7 1.654-2.14l.054-.34c-.374.433-.868.65-1.47.65-.547 0-.974-.196-1.264-.585-.284-.377-.426-.92-.426-1.61 0-.342.025-.734.08-1.164.053-.427.215-1.175.478-2.22.278-1.104 1.048-1.666 2.287-1.666.566 0 .988.23 1.26.686l.085-.538h.747l-1.062 6.695c-.035.256-.063.43-.08.516-.02.085-.093.34-.216.76-.13.447-.4.84-.8 1.165-.403.33-.887.497-1.438.497zm-1.49-2.206v.103c0 1.24.485 1.84 1.49 1.84.487 0 .915-.145 1.27-.434.357-.293.598-.64.715-1.034.15-.518.197-.69.21-.745.013-.053.036-.182.078-.495l1.013-6.394h-.213l-.2 1.296-.17-.52c-.206-.62-.598-.924-1.2-.924-1.118 0-1.78.48-2.03 1.467-.26 1.034-.42 1.77-.47 2.19-.055.418-.082.8-.082 1.13 0 .633.13 1.123.376 1.452.24.323.587.48 1.054.48.708 0 1.223-.334 1.574-1.02l.376-.736-.274 1.747c-.24 1.568-.888 2.365-1.916 2.365-.614 0-1.345-.3-1.345-1.72v-.007l.006-.087-.26.05zm1.933-.765c-.418 0-.738-.166-.95-.49-.203-.312-.3-.757-.3-1.36v-.442c0-1.24.206-2.234.61-2.953.42-.744.958-1.12 1.595-1.12.408 0 .734.167.964.495.22.315.332.755.332 1.304 0 .278-.03.65-.094 1.103-.063.45-.157.952-.283 1.49-.13.557-.354 1.026-.668 1.396-.33.384-.735.58-1.208.58zm.955-6.104c-.543 0-.988.32-1.363.983-.385.68-.578 1.63-.578 2.826v.44c0 1.59.742 1.59.986 1.59.4 0 .73-.16 1.006-.49.285-.337.49-.77.61-1.283.122-.53.215-1.025.277-1.468.06-.44.092-.8.092-1.068 0-.493-.096-.882-.285-1.15-.18-.26-.426-.384-.748-.384z"/><path fill="#618846" d="M87.56 137.062h-.824l.08-.438h.814l.418-2.57c.043-.285.113-.542.21-.775.1-.23.358-.348.782-.348.24 0 .508.093.8.28l-.32.412c-.09-.08-.174-.137-.253-.173-.08-.034-.164-.053-.254-.053-.25 0-.415.188-.496.56l-.415 2.666h1.018l-.08.44h-1.008l-.99 6.29h-.47l.988-6.292z"/><path fill="#608746" d="M86.415 143.486l.99-6.29h-.827l.127-.705.812.003.4-2.46c.046-.294.12-.565.22-.805.12-.283.423-.428.903-.428.265 0 .558.1.87.3l.123.078-.495.64-.105-.095c-.078-.07-.152-.12-.22-.15-.063-.03-.13-.043-.2-.043-.065 0-.268 0-.365.45l-.393 2.512h1.023l-.13.703h-1.004l-.99 6.29h-.74zm1.3-6.555l-.992 6.293h.206l.99-6.29h1.01l.03-.176h-1.015l.44-2.825c.12-.548.407-.663.626-.663.107 0 .21.02.308.062.06.027.117.062.18.107l.144-.19c-.22-.123-.423-.186-.604-.186-.362 0-.586.09-.66.267-.092.22-.16.47-.203.744l-.436 2.683h-.815l-.034.176h.823z"/><path fill="#618846" d="M89.52 138.792c.195-.736.49-1.304.88-1.703.39-.4.86-.6 1.414-.6.506 0 .896.176 1.172.532.275.354.413.864.413 1.528 0 .355-.038.765-.11 1.23-.07.467-.184 1-.337 1.605-.158.603-.435 1.103-.835 1.504-.4.395-.876.595-1.427.595-1.04 0-1.56-.69-1.56-2.075v-.21c0-.34.04-.724.115-1.158.076-.435.168-.852.274-1.25zm.094 2.25v.333c0 1.142.38 1.712 1.137 1.712.84 0 1.377-.446 1.608-1.34.232-.894.38-1.554.44-1.978.063-.427.095-.81.095-1.156 0-1.123-.385-1.686-1.156-1.686-.832 0-1.363.427-1.59 1.28-.23.854-.376 1.46-.44 1.818-.062.36-.092.697-.092 1.014z"/><path fill="#608746" d="M90.693 143.62c-.56 0-.99-.193-1.274-.572-.277-.368-.42-.92-.42-1.637v-.21c0-.344.04-.74.116-1.18.076-.436.17-.86.276-1.262.2-.756.507-1.348.912-1.76.416-.425.924-.64 1.51-.64.544 0 .974.195 1.275.583.29.378.44.92.44 1.61 0 .36-.037.78-.11 1.25-.07.468-.186 1.013-.342 1.617-.16.623-.453 1.15-.867 1.564-.423.426-.933.64-1.52.64zm1.12-6.997c-.52 0-.95.183-1.318.56-.374.38-.657.933-.847 1.643-.105.396-.195.812-.27 1.24-.074.424-.11.805-.11 1.135v.213c0 1.308.466 1.943 1.426 1.943.52 0 .955-.183 1.333-.56.38-.38.65-.865.8-1.443.152-.595.266-1.13.337-1.59.07-.456.104-.863.104-1.21 0-.63-.13-1.12-.386-1.448-.252-.325-.603-.48-1.068-.48zm-1.063 6.597c-.423 0-.747-.164-.962-.487-.204-.307-.308-.763-.308-1.357v-.333c0-.323.034-.673.097-1.036.063-.36.21-.975.44-1.83.243-.913.822-1.378 1.718-1.378.43 0 .76.16.977.477.207.303.31.753.31 1.34 0 .35-.03.744-.093 1.174-.066.428-.214 1.097-.446 1.99-.25.954-.832 1.44-1.735 1.44zm.986-6.16c-.77 0-1.25.39-1.464 1.186-.227.846-.374 1.453-.435 1.807-.062.35-.092.682-.092.99v.333c0 1.063.328 1.58 1.005 1.58.778 0 1.26-.406 1.478-1.24.23-.886.378-1.547.44-1.964.062-.416.092-.798.092-1.136 0-1.046-.335-1.555-1.024-1.555z"/><path fill="#618846" d="M94.665 138.792c.196-.736.487-1.304.88-1.703.392-.4.86-.6 1.412-.6.507 0 .898.176 1.172.532.275.354.412.864.412 1.528 0 .355-.036.765-.107 1.23-.07.467-.184 1-.34 1.605-.154.603-.433 1.103-.832 1.504-.4.395-.875.595-1.426.595-1.04 0-1.56-.69-1.56-2.075v-.21c0-.34.038-.724.113-1.158.077-.435.167-.852.275-1.25zm.092 2.25v.333c0 1.142.38 1.712 1.138 1.712.84 0 1.374-.446 1.605-1.34.232-.894.38-1.554.442-1.978.062-.427.094-.81.094-1.156 0-1.123-.386-1.686-1.156-1.686-.834 0-1.363.427-1.593 1.28-.228.854-.374 1.46-.436 1.818-.06.36-.092.697-.092 1.014z"/><path fill="#608746" d="M95.837 143.62c-.562 0-.99-.193-1.275-.572-.276-.368-.416-.92-.416-1.637v-.21c0-.344.04-.74.114-1.18.075-.436.17-.86.277-1.262.2-.756.507-1.348.91-1.76.417-.425.924-.64 1.51-.64.546 0 .976.195 1.276.583.293.378.44.92.44 1.61 0 .36-.037.78-.107 1.25-.073.47-.188 1.013-.343 1.617-.16.623-.453 1.15-.867 1.564-.422.426-.935.64-1.52.64zm1.12-6.997c-.52 0-.95.183-1.318.56-.375.38-.66.933-.85 1.643-.104.396-.195.812-.27 1.24-.073.424-.11.805-.11 1.135v.213c0 1.308.466 1.943 1.427 1.943.52 0 .955-.183 1.332-.56.38-.38.65-.865.8-1.443.15-.595.265-1.13.336-1.59.07-.456.104-.863.104-1.21 0-.63-.13-1.12-.384-1.448-.253-.325-.6-.48-1.07-.48zm-1.062 6.597c-.424 0-.748-.164-.963-.487-.206-.31-.308-.754-.308-1.357v-.333c0-.323.034-.674.098-1.036.062-.36.21-.975.438-1.83.246-.913.825-1.378 1.72-1.378.43 0 .758.16.976.477.21.303.312.753.312 1.34 0 .35-.032.744-.094 1.174-.064.428-.215 1.097-.445 1.99-.25.954-.834 1.44-1.736 1.44zm.985-6.16c-.772 0-1.252.39-1.465 1.186-.227.846-.373 1.453-.435 1.807-.06.35-.092.68-.092.99v.333c0 1.063.33 1.58 1.006 1.58.778 0 1.26-.406 1.48-1.24.228-.886.376-1.547.437-1.964.063-.416.094-.8.094-1.136 0-1.046-.334-1.555-1.023-1.555z"/><path fill="#618846" d="M104.148 133.077l.484.002-1.626 10.272h-.48l.147-.933c-.39.71-.96 1.064-1.705 1.064-.497 0-.885-.158-1.16-.478-.273-.32-.414-.78-.414-1.384 0-.522.054-1.085.16-1.683.108-.6.254-1.168.44-1.703.188-.537.465-.962.834-1.277.37-.313.79-.47 1.26-.47.686 0 1.134.358 1.348 1.078l.712-4.49zm-4.22 8.387c0 1.056.382 1.584 1.146 1.584.356 0 .68-.138.973-.413.295-.274.56-.778.793-1.508.236-.73.354-1.595.354-2.587 0-.506-.107-.9-.32-1.184-.212-.284-.507-.427-.88-.427-.685 0-1.152.347-1.398 1.043-.25.696-.422 1.33-.52 1.907-.1.58-.148 1.106-.148 1.584z"/><path fill="#608746" d="M100.968 143.62c-.535 0-.96-.178-1.26-.526-.295-.34-.445-.835-.445-1.47 0-.527.055-1.1.162-1.705.107-.606.257-1.185.445-1.725.193-.557.487-1.006.873-1.333.392-.335.844-.504 1.346-.504.586 0 1.016.244 1.29.727l.653-4.14h.752l-1.668 10.537h-.746l.083-.52c-.384.435-.884.655-1.486.655zm1.12-6.997c-.442 0-.826.144-1.174.44-.35.298-.616.708-.794 1.22-.184.528-.33 1.094-.436 1.683-.105.587-.158 1.147-.158 1.66 0 .566.13 1.003.38 1.297.254.29.6.432 1.062.432.7 0 1.22-.325 1.59-.997l.363-.66-.24 1.524h.214l1.585-10.012h-.22l-.783 4.957-.167-.56c-.197-.662-.597-.984-1.22-.984zm-1.014 6.556c-.582 0-1.277-.3-1.277-1.717 0-.484.05-1.023.148-1.604.098-.58.274-1.23.526-1.93.27-.75.78-1.133 1.525-1.133.415 0 .746.16.985.48.228.306.345.728.345 1.263 0 1.002-.12 1.886-.36 2.627-.244.76-.515 1.272-.828 1.565-.316.297-.674.447-1.063.447zm.92-6.12c-.628 0-1.045.314-1.276.96-.243.683-.417 1.317-.512 1.884-.097.565-.145 1.09-.145 1.56 0 .978.333 1.45 1.015 1.45.324 0 .613-.122.883-.375.275-.26.53-.747.757-1.454.23-.717.35-1.572.35-2.546 0-.473-.1-.846-.296-1.103-.19-.253-.44-.376-.774-.376z"/><path fill="#4C2645" d="M61.453 138.52c-.074.015-.117.022-.117.022.02 0 .06-.007.117-.02zm5.65-7.487l1.74-7.208h-3.95L62.46 133.87c1.092.132.795.4.795 2.613 0 1.385-1.375 1.928-1.8 2.038.668-.134 4.085-.97 4.824-4.07l.54-1.924c2.095-.94 4.02-1.638 4.375-3.153l.108-1.9c-.93 1.78-2.496 2.84-4.197 3.56zM69.655 120.49h-3.952l-.505 2.08h3.954"/><path fill="#AA6AA6" d="M82.408 48.242c-6.94-6.246-7.782-19.317-9.413-26.035-1.237-5.096-7.5-10.8-15.067-10.838-7.57.037-17.965 8.47-19.2 13.564-1.633 6.717 1.757 11.52-5.28 23.307C20.336 62.23 6.343 96.3 54.153 101.298c1.296.136 2.554.24 3.774.316 1.22-.076 2.476-.18 3.774-.316 47.81-4.995 33.497-41.542 20.71-53.056z"/><path fill="#894487" d="M82.79 50.07c-6.298-6.066-7.432-18.105-8.96-24.397-.996-4.1-7.345-10.255-13.08-11.47-.208 17.885 17.257 31.585 24.55 53.906 6.98 21.363-23.133 33.506-23.004 33.485 10.77-1.81 13.423-3.092 13.423-3.092 28.343-9.654 16.13-39.698 7.07-48.433z"/><ellipse fill="#4C2645" cx="36.438" cy="77.212" rx="2.645" ry="2.121"/><path fill="#F5F5F5" d="M35.56 77.04c0 .406.407.734.915.735.507 0 .917-.326.917-.732.002-.408-.41-.737-.915-.737-.507 0-.918.327-.918.734z"/><ellipse fill="#4C2645" cx="82.74" cy="76.478" rx="2.645" ry="2.119"/><ellipse fill="#F5F5F5" cx="82.777" cy="76.306" rx=".917" ry=".735"/><path fill="#4C2645" d="M54.36 86.564s3.582 2.188 6.565 0c2.984-2.188 3.977 2.387 0 3.182-3.978.797-5.767-.795-6.564-3.182z"/><path fill="#4C2645" d="M38.088 29.967s.253 7.96-5.722 17.868c-6.74 11.175-16.77 17.21-10.91 35.408 4.697 12.937 24.06 24.397 50.883 16.32-9.415.875-33.77 6.343-46.245-13.7-4.11-6.275-5.2-18.632 1.164-27.55 8.106-11.364 13.897-24.06 10.827-28.346zM72.55 28.355c-.168-1.51-.807-7.91.525-5.685.963 2.373 2.18 15.245 10.065 24.815 8.924 10.827 26.052 41.543-9.95 51.848.775-.954 36.323-14.206 7.98-50.542-5.82-7.28-8.155-16.257-8.62-20.434z"/><path fill="#CADC99" d="M55.712 4.088c-3.78-.236-6.61 1.06-6.24 4.885.03.29-5.27 1.62-6.398 3.972s-1.6 12.93-10.352 12.535c1.035 2.146 8.97 9.544 15.273-3.914 2.107 4.128 6.998 10.085 11.83 9.635-1.768-6.64-5.873-20.516-4.113-27.11z"/><path fill="#94C268" d="M59.74 31.6c1.693-1.974 4.66-6.658 1.084-12.305.34-.62 11.338 6.228 18.113-.525-5.624.71-7.346-4.006-10.258-6.938-2.307-2.59-6.494-4.373-8.283-2.94-.658-2.803-.75-4.59-4.612-4.873-.053-.006-.674-.334-.727-.338-1.762 6.595 2.91 20.796 4.68 27.437.284.01-.278.523 0 .48z"/><path fill="#4C2645" d="M63.978 9.058c-1.225-.45-2.453-.546-2.306-.565 3.163-.384 7.693 2.02 10.112 6.335 2.028 3.62 5.6 4.298 7.898 3.174 2.3-1.124-.98 2.063-1.303 2.296-.325.23-9.274 6.23-17.473-1.105-.658-1.124 11.43 4.835 16.01.53-2.762-.704-3.95-.58-5.713-2.54-1.762-1.96-2.354-6.34-7.227-8.125z"/><path fill="#4C2645" d="M48.72 22.397c1.813 2.888 4.752 7.974 10.964 8.113 4.278-3.146.4-11.98 1.235-11.503.833.48 4.02 8.356-.69 13.087-1.945.146-9.072-.39-12.25-9.818-.287-1.53.376-.453.738.12z"/><path fill="#4C2645" d="M48.09 9.604s-5.906 1.227-6.794 5.49c-.887 4.267-2.762 11.55-10.424 8.99-.57-.195-.936.45-.082 1.572s9.892 9.905 15.388-.006c3.963-8.503.428-1.614-.72-.092-1.028 1.363-4.177 3.965-7.57 3.124-3.397-.842-4.226-2.462-4.226-2.462s6.843-.8 8.214-6.368c1.37-5.567 1.485-7.182 3.63-8.62 2.76-1.853 3.076-1.712 2.583-1.628z"/><path fill="#4C2645" d="M50.585 12.67S46.73 3.725 54.84 4.347c8.11.62 2.402 8.37 2.48 8.115.08-.257 1.187.28 3.164-3.487C62.817 4.52 59.31 2.01 53.85 2.26c-5.94.275-8.267 3.96-3.265 10.41z"/><g fill="#4C2645"><path d="M33.548 77.658c-.865-.08-1.936-1.102-2.18-1.985-.047-.164.053-.33.212-.375.16-.043.33.05.372.21.23.843 1.365 1.648 1.785 1.538.164-.042.33.057.37.22.04.16-.058.327-.216.367-.11.028-.223.037-.34.025z"/><path d="M34.05 77.025c-.72-.067-1.485-.776-1.74-1.695-.043-.162.053-.326.213-.37.164-.046.33.05.372.21.23.826.944 1.356 1.385 1.236.16-.038.328.057.37.22.04.162-.057.33-.217.37-.123.032-.252.04-.383.03z"/></g><g fill="#D78AAF"><circle cx="87.565" cy="83.404" r=".46"/><circle cx="85.83" cy="82.318" r=".459"/><circle cx="88.317" cy="81.365" r=".46"/><path d="M86.67 81.216c-.246.052-.49-.112-.54-.362-.047-.253.116-.49.365-.538.248-.048.488.113.538.362.048.247-.115.49-.363.538z"/><circle cx="85.332" cy="84.307" r=".46"/><circle cx="83.55" cy="83.231" r=".459"/><path d="M84.802 81.58c-.253.05-.492-.11-.54-.36-.048-.25.114-.49.362-.54.248-.048.49.113.54.367.048.247-.115.488-.362.533z"/></g><g><path fill="#D78AAF" d="M35.265 84.104c-.237.095-.503-.023-.6-.26-.09-.232.024-.504.26-.596.238-.092.504.023.596.26.098.235-.02.503-.254.596zm-1.905-.754c-.238.1-.506-.02-.598-.258-.095-.234.02-.5.26-.593.234-.098.502.02.597.257.09.234-.028.502-.26.593zm2.27-1.386c-.233.092-.502-.024-.596-.26-.093-.238.02-.503.26-.597.234-.094.505.02.598.26.092.233-.024.5-.262.597zm-1.814-.276c-.234.097-.503-.02-.595-.257-.09-.236.024-.502.26-.594.235-.093.504.02.6.257.09.237-.028.506-.263.596zM33.23 85.4c-.232.09-.5-.023-.597-.26-.09-.235.024-.5.262-.595.236-.094.502.023.596.258.096.235-.02.504-.26.596zm-1.944-.733c-.238.09-.505-.022-.597-.257-.096-.24.02-.505.257-.6.233-.093.504.022.597.26.093.236-.024.502-.26.597zm.758-2.277c-.236.093-.504-.024-.596-.26-.092-.237.022-.503.258-.595.24-.095.5.02.6.26.093.232-.025.502-.262.594z"/></g><g fill="#4C2645"><path d="M85.866 76.923c.864-.08 1.935-1.1 2.18-1.984.046-.166-.055-.333-.213-.378-.16-.042-.33.05-.372.212-.227.84-1.364 1.646-1.784 1.537-.162-.04-.327.057-.368.22-.04.16.056.33.216.367.11.027.225.036.343.025z"/><path d="M85.362 76.29c.72-.066 1.487-.777 1.74-1.694.044-.164-.05-.328-.212-.372-.163-.045-.328.05-.37.212-.23.825-.946 1.354-1.387 1.235-.162-.035-.33.06-.37.223-.04.16.058.33.217.368.122.034.252.04.382.03z"/></g><g><path d="M101.086 101.73c1.706-.018 3.075 1.29 3.092 2.978.017 1.688-1.328 3.04-3.053 3.057-1.724.016-3.112-1.31-3.128-2.996-.016-1.69 1.347-3.023 3.07-3.04h.02zm-.03.606c-1.303.012-2.3 1.104-2.29 2.425.015 1.34 1.034 2.395 2.372 2.38 1.304.006 2.283-1.085 2.27-2.406-.013-1.338-1.014-2.408-2.334-2.397h-.018zm-.422 3.965l-.695.01-.03-3.01c.273-.037.66-.1 1.153-.103.568-.005.826.085 1.028.23.187.125.316.345.32.638.004.367-.27.607-.617.722v.037c.294.09.443.324.54.728.095.46.17.622.227.732l-.732.008c-.093-.11-.15-.365-.246-.732-.06-.312-.242-.456-.627-.452l-.33.004.01 1.19zm.003-1.686l.33-.003c.385-.003.696-.134.692-.446-.005-.274-.208-.457-.648-.452-.186.003-.312.023-.386.043l.01.86z"/></g></svg>