<svg xmlns="http://www.w3.org/2000/svg" width="176.401" height="77.454" viewBox="0 0 176.401 77.454"><path fill="#FFF" d="M146.114 17.79c1.662 2.79 3.295 5.145 4.9 7.07 1.285-1.678 1.926-2.98 1.926-3.91 0-.478-.19-.864-.576-1.16-.385-.294-1.076-.46-2.07-.5v-1.266h7.984v1.267c-.947 0-1.668.173-2.16.515-.492.34-1.133 1.206-1.922 2.593-.71 1.237-1.434 2.366-2.166 3.387.748.78 1.35 1.292 1.803 1.54.453.25.89.374 1.312.374.58 0 1.066-.23 1.46-.684s.616-1.176.673-2.162h1.238c-.008 1.793-.38 3.13-1.11 4.014-.864 1.022-2.058 1.535-3.58 1.535-.75 0-1.472-.13-2.167-.394-.695-.263-1.545-.784-2.55-1.563-1.2.75-2.25 1.264-3.14 1.54-.893.278-1.856.416-2.89.416-1.933 0-3.487-.54-4.66-1.618-1.173-1.08-1.76-2.43-1.76-4.053 0-2.738 1.808-4.895 5.42-6.47-.638-1.315-1.056-2.312-1.25-2.992-.198-.68-.296-1.33-.296-1.95 0-1.304.516-2.412 1.55-3.32 1.03-.91 2.388-1.366 4.067-1.366 1.69 0 2.987.358 3.888 1.076.9.718 1.35 1.625 1.35 2.723 0 .93-.376 1.833-1.132 2.71-.754.876-2.136 1.76-4.144 2.65zm-3.436 1.746c-.76.572-1.29 1.13-1.586 1.675-.297.546-.445 1.15-.445 1.817 0 1.24.445 2.43 1.338 3.575.89 1.146 1.984 1.718 3.28 1.718.91 0 1.85-.31 2.817-.925-1.53-1.942-2.52-3.24-2.97-3.893-.45-.652-1.26-1.974-2.434-3.964zm2.842-2.882c1.078-.497 1.824-1.043 2.232-1.64.408-.595.61-1.357.61-2.286 0-.93-.196-1.63-.59-2.104s-.93-.71-1.606-.71c-.637 0-1.16.223-1.57.67-.406.444-.61 1.047-.61 1.807 0 1.09.51 2.51 1.534 4.265zM23.622 27.604l-2.04 8.265h.298c3.525 0 6.03-3.315 6.03-6.146 0-2.084-1.358-3.91-4.67-3.91-6.88 0-11.468 3.39-11.468 9.05 0 1.898.552 2.195.595 2.53-2.93 0-4.545-.93-4.545-3.61 0-4.953 7.815-9.682 14.908-9.682 6.668 0 9.64 2.904 9.64 5.958 0 2.198-1.528 4.507-4.246 5.884 3.482.596 4.884 3.165 4.884 6.07 0 4.802-3.78 10.648-8.452 10.648-2.548 0-5.01-.224-5.01-2.57 0-.633.168-1.415.55-2.346.808 1.155 2.252 1.34 2.847 1.34 2.336 0 4.205-3.685 4.205-6.85 0-2.42-1.062-4.58-3.865-4.58-.552 0-1.36.037-2.124.11L17.674 52.03H11.56l5.776-23.68 6.286-.746zM42.99 49.35c2.08 0 5.648-2.16 7.135-4.916h1.91c-2.42 3.835-6.497 7.596-11.976 7.596-4.08 0-6.288-2.72-6.288-5.92 0-4.73 2.293-13.032 10.023-13.032 3.482 0 5.436 1.266 5.436 3.872 0 4.542-5.562 7.15-9.6 7.596-.083.596-.125 1.154-.125 1.6 0 2.458 1.827 3.203 3.484 3.203zm2.208-14.3c-2.378 0-4.332 4.21-5.224 7.71 3.908-.04 6.668-2.98 6.71-5.624 0-.782-.212-2.085-1.486-2.085z"/><path fill="#FFF" d="M58.916 33.412l-.467 1.862c1.527-1.043 3.226-1.862 5.01-1.862 1.91 0 3.06.97 3.06 2.383 0 1.303-1.106 2.904-3.187 2.904-2.378 0-1.19-2.46-2.463-2.46s-1.953.41-2.93 1.192L54.415 52.03H48.3l4.5-18.618h6.116zm15.8 15.938c2.08 0 5.647-2.16 7.134-4.916h1.912c-2.422 3.835-6.498 7.596-11.977 7.596-4.078 0-6.286-2.72-6.286-5.92 0-4.73 2.292-13.032 10.02-13.032 3.482 0 5.436 1.266 5.436 3.872 0 4.542-5.562 7.15-9.598 7.596-.085.596-.128 1.154-.128 1.6 0 2.458 1.827 3.203 3.483 3.203zm2.21-14.3c-2.38 0-4.334 4.21-5.227 7.71 3.906-.04 6.666-2.98 6.71-5.624 0-.782-.213-2.085-1.487-2.085z"/><path fill="#FFF" d="M98.754 46.07c-.127.41-.213.82-.213 1.193 0 .82.47 1.378 2.125 1.378 1.7 0 2.338-1.153 4.037-2.344h1.444c-1.955 1.713-5.182 5.734-8.494 5.734s-5.268-1.268-5.268-4.06c0-.596.086-1.19.256-1.9l1.613-6.7c.087-.335.128-.67.128-.97 0-1.34-.806-2.196-1.952-2.196-1.02 0-1.783.26-2.676.782L86.14 52.03h-6.116l4.502-18.618h6.117l-.51 2.01c1.742-1.116 3.693-2.01 5.564-2.01 2.293 0 4.883 2.16 4.883 4.654 0 .298 0 .596-.086.894l-1.74 7.11zm22 3.28c2.082 0 5.648-2.16 7.137-4.916h1.91c-2.42 3.835-6.496 7.596-11.975 7.596-4.078 0-6.287-2.72-6.287-5.92 0-4.73 2.295-13.032 10.023-13.032 3.483 0 5.44 1.266 5.44 3.872 0 4.542-5.565 7.15-9.6 7.596-.085.596-.128 1.154-.128 1.6.002 2.458 1.828 3.203 3.484 3.203zm2.21-14.3c-2.38 0-4.333 4.21-5.226 7.71 3.908-.04 6.668-2.98 6.71-5.624.002-.782-.21-2.085-1.485-2.085z"/><path fill="#FFF" d="M144.793 46.07c-.127.41-.213.82-.213 1.193 0 .82.467 1.378 2.123 1.378 1.7 0 2.338-1.153 4.035-2.344h1.445c-1.955 1.713-5.182 5.734-8.494 5.734s-5.27-1.268-5.27-4.06c0-.596.086-1.19.256-1.9l1.613-6.7c.085-.335.126-.67.126-.97 0-1.34-.807-2.196-1.953-2.196-1.02 0-1.783.26-2.676.782L132.18 52.03h-6.117l4.502-18.618h6.117l-.51 2.01c1.74-1.116 3.695-2.01 5.562-2.01 2.295 0 4.885 2.16 4.885 4.654 0 .298 0 .596-.088.894l-1.74 7.11z"/><path fill="#FFF" d="M165.52 46.07c-.127.448-.213.858-.213 1.268 0 .78.34 1.378 1.53 1.378.296 0 .763 0 1.103-.112-1.188 3.203-2.973 3.426-4.416 3.426-2.465 0-3.78-1.117-4.205-2.83-1.277 1.526-3.188 3.053-5.78 3.053-4.075 0-5.265-2.532-5.265-4.73 0-6.403 2.633-14.073 11.127-14.073 1.02 0 2.082.372 2.846.93l.255-.968h6.074l-3.06 12.66zm-3.695-9.865c-.68-.52-1.486-.67-2.082-.67-3.186 0-5.734 5.92-5.734 10.984 0 2.233 1.4 2.642 2.463 2.642.977 0 1.91-.856 2.76-1.898 0-.372.086-.782.213-1.192l2.378-9.868zM109.522 40.862l-4.98 21.49c-1.272 5.325-5.208 6.436-8.013 6.436-2.59 0-5.01-1.6-5.01-4.02 0-3.427 1.562-7.843 9.12-12.515l2.76-11.39h6.12zM95.426 61.738c0 .52-.062 1.742.873 1.742.846 0 1.69-.594 2.2-2.79l1.74-6.224c-3.686 2.715-4.815 5.263-4.815 7.272zM48.212 24.027c-1.543 3.902-5.65 5.417-8.3 5.417-4.31 0-6.377-1.922-6.377-7.165 0-5.273 2.533-15.145 10.164-15.145 2.735 0 4.86 1.077 4.86 3.903 0 1.54-.553 2.677-2.04 2.677-.464 0-1.105-.116-1.66-.757.7-.35 1.34-1.572 1.34-2.68 0-.93-.464-1.775-1.774-1.775-3.204 0-6.058 7.66-6.058 13.6 0 2.68.698 4.543 3.494 4.543 2.27 0 4.34-1.106 5.68-2.912l.668.29z"/><path fill="#FFF" d="M61.434 14.417l-2.097 9.9c-.087.38-.117.67-.117.933 0 .815.378 1.252 1.194 1.252 1.136 0 1.922-1.28 2.36-2.737h1.222c-1.66 4.747-4.28 5.387-5.854 5.387-1.63 0-2.68-.932-2.854-2.68-.903 1.34-2.27 2.68-4.34 2.68-1.98 0-3.872-1.223-3.872-4.69 0-3.93 2.417-10.19 7.484-10.19 1.66 0 2.358.64 2.358 1.484v.204l.32-1.543h4.196zm-10.048 9.64c0 2.242.932 2.272 1.457 2.272.845 0 2.067-.877 2.417-2.565l1.398-6.582c0-.35-.262-1.107-1.194-1.107-2.476 0-4.078 5.242-4.078 7.98z"/><path fill="#FFF" d="M65.89 9.175l4.31-.582-1.398 6.552c1.193-.728 1.805-.815 2.388-.815 2.038 0 3.437 1.282 3.437 4.98 0 3.407-1.806 9.843-7.98 9.843-2.68 0-4.077-1.398-4.077-3.728 0-.495.058-1.048.204-1.66l3.115-14.59zm4.25 7.222c-.407 0-1.397.146-1.718.525l-1.602 7.396c-.058.233-.087.466-.087.67 0 .844.495 1.34 1.543 1.34 1.894 0 3.407-4.078 3.407-7.135 0-1.426-.494-2.796-1.542-2.796zm19.003-1.98l-2.098 9.9c-.086.38-.115.67-.115.933 0 .815.38 1.252 1.193 1.252 1.137 0 1.924-1.28 2.36-2.737h1.222c-1.658 4.747-4.28 5.387-5.854 5.387-1.63 0-2.68-.932-2.852-2.68-.904 1.34-2.27 2.68-4.34 2.68-1.98 0-3.873-1.223-3.873-4.69 0-3.93 2.418-10.19 7.484-10.19 1.66 0 2.36.64 2.36 1.484v.204l.32-1.543h4.194zm-10.047 9.64c0 2.242.932 2.272 1.457 2.272.844 0 2.066-.877 2.416-2.565l1.394-6.582c0-.35-.262-1.107-1.193-1.107-2.473 0-4.075 5.242-4.075 7.98z"/><path fill="#FFF" d="M97.91 8.593L94.56 24.32c-.087.378-.116.67-.116.93 0 .816.377 1.08 1.193 1.08 1.135 0 2.184-1.108 2.62-2.564h1.224c-1.66 4.747-4.54 5.387-6.113 5.387-1.748 0-3.117-1.048-3.117-3.495 0-.553.087-1.194.233-1.893l3.115-14.59 4.31-.582z"/><path fill="#FFF" d="M105.684 8.593l-3.35 15.726c-.086.377-.117.67-.117.93 0 .815.38 1.08 1.195 1.08 1.135 0 2.184-1.11 2.62-2.565h1.224c-1.66 4.747-4.543 5.387-6.115 5.387-1.744 0-3.115-1.048-3.115-3.495 0-.553.088-1.194.234-1.893l3.114-14.59 4.31-.582z"/><path fill="#FFF" d="M112.06 26.707c2.302 0 3.7-1.28 5.157-2.94h.988c-1.658 2.678-4.135 5.386-8.008 5.386-2.736 0-4.543-1.34-4.543-4.63 0-3.35 1.893-10.367 7.863-10.367 2.592 0 3.203 1.34 3.203 2.795 0 3.35-3.203 5.943-6.7 6.147-.026.408-.056.815-.056 1.165 0 1.98.7 2.447 2.097 2.447zm1.69-11.008c-1.484 0-2.912 3.114-3.494 5.997 2.242-.146 4.223-2.39 4.223-4.806 0-.726-.176-1.192-.73-1.192z"/><path fill="#FFF" d="M124.38 9.816l-.99 4.6h1.747l-.232 1.166h-1.748l-1.863 8.737c-.088.377-.117.67-.117.93 0 .815.38 1.08 1.193 1.08 1.137 0 2.186-1.11 2.62-2.565h1.224c-1.658 4.747-4.543 5.387-6.115 5.387-1.748 0-3.117-1.048-3.117-3.495 0-.553.088-1.194.234-1.893l1.746-8.184h-.96l.23-1.164h.962l.873-4.02 4.31-.58z"/><path fill="#FFF" d="M130.7 26.386c1.105 0 2.504-.728 3.436-1.543-.61 3.32-2.707 4.31-5.037 4.31-2.71 0-4.518-1.34-4.518-4.63 0-3.35 1.895-10.367 7.865-10.367 2.59 0 3.203 1.34 3.203 2.795 0 3.38-3.202 5.943-6.698 6.147-.03.292-.06.612-.06.874 0 1.835.788 2.417 1.808 2.417zm1.98-10.687c-1.457 0-2.912 3.23-3.523 5.997 2.27-.117 4.25-2.36 4.25-4.806 0-.726-.174-1.192-.727-1.192z"/><g fill="#FFF"><path d="M109.815 53.916l.512 13.115 4.824-13.122.768.008-5.463 14.865h-.805l-.58-14.864h.745z"/><path d="M110.596 68.985h-1.145l-.59-15.273h1.15l.48 12.282 4.52-12.293 1.197.016-5.61 15.27zm-.752-.407h.467l5.316-14.46-.332-.004-5.13 13.955-.546-13.95h-.334l.56 14.457zm6.34-4.992c-.137.82-.207 1.567-.207 2.237 0 1.656.572 2.484 1.71 2.484 1.335 0 2.276-1.017 2.827-3.05l.723.08c-.275 1.177-.73 2.08-1.36 2.708-.634.63-1.403.944-2.31.944-.826 0-1.432-.26-1.814-.775-.387-.516-.578-1.323-.578-2.423 0-1.292.275-2.89.824-4.793.55-1.905 1.674-2.857 3.38-2.857 1.636 0 2.454 1.11 2.454 3.333 0 .62-.084 1.324-.248 2.11h-5.403zm.145-.68h4.596c.068-.468.104-.915.104-1.34 0-1.828-.583-2.743-1.75-2.743-1.405 0-2.39 1.36-2.95 4.082z"/><path d="M117.567 69.192c-.89 0-1.555-.288-1.98-.855-.415-.557-.616-1.39-.616-2.544 0-1.306.28-2.938.834-4.85.574-1.993 1.78-3.004 3.576-3.004.882 0 1.558.307 2.003.915.436.59.654 1.47.654 2.62 0 .63-.084 1.355-.252 2.152l-.033.163h-5.395c-.117.74-.176 1.424-.176 2.034 0 1.534.494 2.28 1.508 2.28 1.242 0 2.102-.95 2.63-2.9l.046-.17 1.123.127-.053.226c-.283 1.208-.758 2.152-1.416 2.805-.667.665-1.493 1.003-2.45 1.003zm1.812-10.845c-1.62 0-2.66.885-3.186 2.708-.543 1.876-.818 3.47-.818 4.737 0 1.05.182 1.824.537 2.3.348.465.887.69 1.652.69.857 0 1.566-.29 2.164-.883.56-.56.98-1.36 1.25-2.387l-.317-.036c-.582 2.013-1.582 3.033-2.977 3.033-.64 0-1.125-.238-1.45-.708-.308-.446-.464-1.112-.464-1.98 0-.678.07-1.442.21-2.27l.028-.17h5.41c.138-.705.208-1.346.208-1.907 0-2.105-.735-3.128-2.25-3.128zm1.72 4.762h-5.022l.05-.248c.582-2.816 1.643-4.245 3.148-4.245.654 0 1.154.262 1.484.78.318.495.47 1.204.47 2.166 0 .434-.034.895-.104 1.37l-.026.175zm-4.52-.41h4.168c.05-.393.075-.774.075-1.136 0-2.537-1.166-2.537-1.547-2.537-1.244 0-2.153 1.235-2.697 3.674zm6.758 6.64l-.02.39c0 1.636.624 2.454 1.876 2.454 1.484 0 2.404-1.162 2.764-3.485l.227-1.445c-.578 1.127-1.45 1.69-2.62 1.69-.782 0-1.38-.274-1.792-.824-.412-.55-.62-1.34-.62-2.37 0-.52.042-1.114.124-1.774.084-.66.328-1.797.734-3.413.41-1.615 1.523-2.422 3.344-2.422 1.02 0 1.703.524 2.047 1.568l.208-1.34h.742l-1.605 10.122c-.055.398-.096.66-.123.784-.03.123-.137.51-.33 1.165-.19.652-.582 1.22-1.172 1.7s-1.29.723-2.098.723c-1.672 0-2.508-1.018-2.508-3.05v-.33l.824-.145zm.64-4.414v.68c0 1.774.577 2.66 1.73 2.66.673 0 1.245-.274 1.712-.825.467-.547.797-1.24.99-2.07.19-.83.336-1.593.434-2.29.096-.692.143-1.252.143-1.68 0-.81-.158-1.44-.477-1.895-.316-.454-.758-.68-1.324-.68-.91 0-1.674.543-2.287 1.628-.617 1.086-.924 2.577-.924 4.474z"/><path d="M125.022 73.068c-.896 0-1.582-.282-2.04-.837-.446-.542-.673-1.356-.673-2.416v-.5l1.244-.22-.033.643c.003 1.51.55 2.244 1.673 2.244 1.38 0 2.22-1.083 2.56-3.31l.085-.526c-.583.67-1.345 1.008-2.274 1.008-.848 0-1.506-.304-1.957-.905-.44-.583-.66-1.423-.66-2.494 0-.527.042-1.133.126-1.797.082-.665.33-1.82.738-3.436.43-1.71 1.62-2.578 3.54-2.578.875 0 1.53.355 1.95 1.06l.128-.834h1.157l-1.64 10.36c-.056.395-.097.664-.126.794-.03.132-.14.528-.334 1.18-.203.69-.62 1.295-1.238 1.8-.626.51-1.375.768-2.228.768zm-2.305-3.414v.16c0 1.915.754 2.846 2.305 2.846.758 0 1.42-.227 1.97-.675.552-.452.925-.99 1.104-1.6.234-.8.307-1.068.326-1.153.018-.082.053-.282.12-.766l1.567-9.892h-.33l-.31 2.006-.267-.806c-.316-.96-.924-1.426-1.854-1.426-1.73 0-2.76.742-3.144 2.268-.404 1.6-.648 2.74-.73 3.388-.08.648-.123 1.236-.123 1.748 0 .98.195 1.738.578 2.25.376.5.91.742 1.63.742 1.098 0 1.895-.517 2.438-1.58l.58-1.134-.423 2.702c-.373 2.427-1.37 3.657-2.965 3.657-.95 0-2.08-.463-2.08-2.66v-.01l.008-.136-.403.07zm2.992-1.184c-.65 0-1.145-.254-1.473-.757-.312-.482-.467-1.17-.467-2.106v-.68c0-1.925.32-3.464.95-4.575.65-1.15 1.48-1.733 2.465-1.733.633 0 1.137.256 1.492.765.342.487.514 1.165.514 2.014 0 .43-.047 1.005-.144 1.707-.098.697-.244 1.472-.436 2.307-.202.86-.548 1.586-1.034 2.158-.505.596-1.134.897-1.867.897zm1.475-9.442c-.84 0-1.53.5-2.11 1.524-.593 1.05-.894 2.52-.894 4.374v.68c0 2.456 1.15 2.456 1.528 2.456.614 0 1.124-.247 1.554-.753.445-.523.764-1.19.947-1.988.19-.822.334-1.586.43-2.27.094-.684.143-1.24.143-1.653 0-.765-.148-1.364-.44-1.78-.28-.4-.658-.593-1.158-.593zm11.84.022h-1.276l.123-.68h1.26l.646-3.978c.067-.44.177-.84.327-1.197.15-.357.553-.537 1.21-.537.37 0 .782.145 1.235.433l-.494.64c-.14-.122-.27-.21-.394-.267-.123-.055-.254-.082-.393-.082-.386 0-.642.29-.767.866l-.643 4.125h1.576l-.125.68h-1.56l-1.53 9.73-.73.004 1.535-9.733z"/><path d="M137.254 68.988l1.53-9.734h-1.278l.195-1.088h1.26l.62-3.806c.07-.454.185-.873.34-1.244.185-.44.655-.662 1.397-.662.408 0 .86.157 1.346.465l.19.12-.767.99-.164-.148c-.12-.11-.233-.187-.337-.234-.098-.044-.2-.065-.31-.065-.103 0-.415 0-.567.7l-.605 3.88h1.583l-.197 1.09h-1.558l-1.532 9.73-1.144.003zm2.01-10.142l-1.533 9.732h.32l1.533-9.732h1.562l.05-.272h-1.57l.683-4.37c.184-.85.627-1.027.967-1.027.166 0 .326.033.475.1.09.04.183.095.276.164l.225-.29c-.34-.19-.654-.285-.932-.285-.562 0-.906.14-1.02.412-.144.34-.25.726-.315 1.148l-.674 4.15h-1.265l-.05.272h1.27zM142.06 61.724c.302-1.14.755-2.017 1.36-2.634.604-.618 1.332-.926 2.184-.926.783 0 1.39.274 1.814.823.428.55.64 1.337.64 2.366 0 .55-.056 1.184-.165 1.904-.11.72-.285 1.547-.525 2.48s-.67 1.707-1.29 2.325c-.618.617-1.353.926-2.204.926-1.61 0-2.412-1.07-2.412-3.21v-.33c0-.52.057-1.118.174-1.79.116-.673.257-1.317.423-1.934zm.144 3.484v.514c0 1.765.586 2.647 1.758 2.647 1.3 0 2.125-.693 2.484-2.075.36-1.382.588-2.402.684-3.06.098-.656.145-1.25.145-1.785 0-1.737-.596-2.606-1.787-2.606-1.29 0-2.11.66-2.463 1.98s-.58 2.26-.676 2.813c-.1.554-.147 1.078-.147 1.57z"/><path d="M143.874 69.192c-.87 0-1.533-.297-1.973-.884-.426-.57-.643-1.42-.643-2.53v-.33c0-.53.06-1.145.18-1.824.117-.675.26-1.332.426-1.953.31-1.165.785-2.082 1.412-2.722.643-.655 1.426-.988 2.33-.988.846 0 1.512.303 1.977.9.454.584.683 1.423.683 2.492 0 .557-.057 1.207-.168 1.935-.11.724-.287 1.564-.53 2.5-.247.965-.698 1.78-1.34 2.42-.658.653-1.447.985-2.35.985zm1.73-10.824c-.8 0-1.47.283-2.04.865-.575.588-1.017 1.445-1.308 2.543-.164.61-.305 1.254-.42 1.917-.113.658-.172 1.248-.172 1.755v.33c0 2.022.723 3.006 2.21 3.006.802 0 1.476-.284 2.06-.866.59-.588 1.006-1.34 1.236-2.232.236-.922.412-1.75.52-2.46.108-.707.163-1.336.163-1.872 0-.977-.2-1.73-.596-2.24-.39-.503-.928-.746-1.653-.746zm-1.643 10.205c-.654 0-1.154-.253-1.486-.753-.314-.473-.475-1.18-.475-2.098v-.514c0-.503.05-1.043.147-1.605.098-.557.326-1.51.68-2.83.38-1.415 1.273-2.133 2.66-2.133.664 0 1.172.25 1.51.74.32.468.482 1.165.482 2.072 0 .54-.05 1.152-.147 1.815-.1.662-.33 1.697-.688 3.08-.384 1.477-1.286 2.226-2.683 2.226zm1.528-9.525c-1.195 0-1.936.598-2.266 1.83-.35 1.31-.575 2.25-.67 2.794-.097.54-.144 1.056-.144 1.535v.514c0 1.646.508 2.445 1.555 2.445 1.204 0 1.954-.627 2.288-1.92.356-1.37.585-2.39.68-3.038.097-.643.144-1.234.144-1.756 0-1.615-.517-2.4-1.583-2.4zM150.016 61.724c.303-1.14.756-2.017 1.36-2.634.606-.618 1.333-.926 2.187-.926.783 0 1.387.274 1.814.823.426.55.64 1.337.64 2.366 0 .55-.056 1.184-.167 1.904-.11.72-.285 1.547-.523 2.48-.242.932-.672 1.707-1.29 2.325-.618.617-1.355.926-2.206.926-1.605 0-2.41-1.07-2.41-3.21v-.33c0-.52.06-1.118.176-1.79.116-.673.257-1.317.42-1.934zm.145 3.484v.514c0 1.765.588 2.647 1.76 2.647 1.3 0 2.127-.693 2.486-2.075.36-1.382.586-2.402.684-3.06.095-.656.144-1.25.144-1.785 0-1.737-.596-2.606-1.787-2.606-1.29 0-2.11.66-2.465 1.98s-.578 2.26-.674 2.813c-.1.554-.147 1.078-.147 1.57z"/><path d="M151.83 69.192c-.866 0-1.53-.297-1.972-.884-.428-.57-.643-1.42-.643-2.53v-.33c0-.53.06-1.145.178-1.824.117-.674.26-1.33.426-1.953.31-1.165.783-2.082 1.41-2.722.643-.655 1.43-.988 2.332-.988.846 0 1.51.303 1.975.9.453.584.684 1.423.684 2.492 0 .557-.06 1.207-.167 1.935-.11.724-.29 1.564-.53 2.5-.25.965-.7 1.78-1.343 2.42-.654.653-1.445.985-2.35.985zm1.733-10.824c-.803 0-1.47.283-2.04.865-.577.588-1.017 1.445-1.31 2.543-.162.61-.305 1.255-.418 1.917-.115.658-.174 1.248-.174 1.755v.33c0 2.022.725 3.006 2.21 3.006.806 0 1.48-.284 2.063-.866.588-.588 1.004-1.34 1.234-2.232.238-.922.414-1.75.52-2.46.11-.707.163-1.336.163-1.872 0-.977-.2-1.73-.597-2.24-.386-.503-.927-.746-1.65-.746zm-1.643 10.205c-.656 0-1.158-.253-1.488-.753-.32-.48-.475-1.167-.475-2.098v-.514c0-.503.05-1.043.148-1.605.098-.557.326-1.51.678-2.83.38-1.415 1.275-2.133 2.662-2.133.664 0 1.172.25 1.508.74.322.468.482 1.165.482 2.072 0 .54-.05 1.152-.146 1.815-.1.662-.33 1.697-.69 3.08-.384 1.477-1.284 2.226-2.68 2.226zm1.526-9.525c-1.197 0-1.938.598-2.268 1.83-.35 1.31-.576 2.25-.67 2.794-.096.54-.143 1.055-.143 1.535v.514c0 1.646.508 2.445 1.555 2.445 1.203 0 1.95-.627 2.285-1.92.357-1.37.586-2.39.68-3.038.096-.644.143-1.234.143-1.756 0-1.615-.518-2.4-1.582-2.4z"/><g><path d="M164.688 52.884h.75l-2.516 15.897h-.74l.225-1.44c-.604 1.1-1.484 1.65-2.64 1.65-.77 0-1.366-.248-1.792-.74-.428-.496-.64-1.21-.64-2.143 0-.81.08-1.677.247-2.603.166-.926.393-1.803.682-2.634.29-.83.72-1.49 1.29-1.976.57-.487 1.22-.73 1.948-.73 1.06 0 1.754.557 2.084 1.67l1.102-6.95zM158.16 65.86c0 1.63.59 2.447 1.774 2.447.55 0 1.05-.212 1.504-.638.455-.427.86-1.205 1.227-2.336s.547-2.465.547-4.002c0-.78-.166-1.392-.494-1.83-.33-.44-.783-.66-1.36-.66-1.06 0-1.782.54-2.165 1.616-.387 1.075-.652 2.06-.805 2.95-.153.893-.227 1.708-.227 2.45z"/><path d="M159.768 69.192c-.828 0-1.484-.273-1.947-.812-.455-.53-.687-1.294-.687-2.274 0-.817.084-1.705.25-2.64.166-.93.398-1.828.69-2.665.298-.86.753-1.553 1.35-2.06.606-.52 1.306-.78 2.08-.78.91 0 1.58.38 1.997 1.127l1.013-6.408 1.164.002-2.58 16.304h-1.154l.127-.805c-.6.673-1.37 1.013-2.302 1.013zm1.734-10.824c-.684 0-1.28.223-1.816.682-.54.46-.953 1.096-1.23 1.887-.284.816-.51 1.692-.673 2.603s-.244 1.774-.244 2.567c0 .878.197 1.554.59 2.007.387.45.924.67 1.637.67 1.084 0 1.89-.505 2.46-1.544l.562-1.02-.37 2.357h.33l2.45-15.49h-.34l-1.214 7.668-.256-.864c-.304-1.023-.92-1.52-1.888-1.52zm-1.568 10.143c-.902 0-1.98-.46-1.98-2.65 0-.75.08-1.585.23-2.482.153-.9.427-1.905.813-2.987.416-1.16 1.21-1.75 2.357-1.75.643 0 1.154.25 1.523.74.355.473.537 1.13.537 1.954 0 1.55-.19 2.917-.557 4.064-.38 1.176-.8 1.968-1.28 2.422-.49.458-1.043.69-1.643.69zm1.422-9.46c-.973 0-1.617.483-1.973 1.48-.38 1.06-.646 2.04-.795 2.916-.148.875-.225 1.687-.225 2.415 0 1.51.514 2.245 1.57 2.245.5 0 .947-.19 1.365-.583.426-.398.818-1.154 1.172-2.248.355-1.106.535-2.432.535-3.94 0-.732-.152-1.306-.453-1.707-.292-.388-.682-.577-1.196-.577z"/></g></g><g><path fill="#FFF" d="M98.635 61.304c-.115.023-.178.033-.178.033.028 0 .09-.01.178-.033zm8.74-11.584l2.693-11.15h-6.11l-3.767 15.538c1.69.206 1.23.62 1.23 4.046 0 2.142-2.12 2.983-2.784 3.15 1.035-.208 6.318-1.5 7.467-6.295l.834-2.98c3.242-1.456 6.217-2.533 6.77-4.878l.168-2.942c-1.444 2.755-3.864 4.394-6.5 5.51z"/></g><g><path fill="#FFF" d="M111.327 33.412h-6.118l-.78 3.218h6.114"/></g><g><path fill="#FFF" d="M159.952 4.386c2.637-.025 4.758 1.996 4.783 4.607.025 2.61-2.055 4.702-4.72 4.73-2.67.025-4.817-2.026-4.843-4.636-.025-2.61 2.082-4.675 4.75-4.7h.03zm-.047.937c-2.018.02-3.56 1.71-3.54 3.752.02 2.07 1.597 3.702 3.67 3.682 2.013.01 3.53-1.68 3.51-3.723-.02-2.07-1.57-3.73-3.612-3.71h-.028zm-.65 6.136l-1.08.007-.044-4.652c.426-.06 1.02-.153 1.787-.16.88-.01 1.277.13 1.592.354.286.194.487.533.493.99.004.564-.418.94-.955 1.113v.057c.455.14.686.505.836 1.127.146.708.264.96.35 1.13l-1.135.013c-.144-.17-.233-.564-.38-1.132-.09-.48-.377-.705-.973-.7l-.51.006.018 1.845zm0-2.613l.51-.004c.6-.005 1.08-.21 1.075-.692-.004-.424-.32-.706-1.002-.7-.285.005-.48.035-.594.065l.012 1.332z"/></g></svg>